<svg width="146" height="37" viewBox="0 0 146 37" fill="none" xmlns="http://www.w3.org/2000/svg">
<path d="M1.55999 36C1.20799 36 0.919986 35.888 0.695986 35.664C0.471985 35.44 0.359985 35.152 0.359985 34.8V3.59997C0.359985 3.24797 0.471985 2.95997 0.695986 2.73597C0.919986 2.51197 1.20799 2.39997 1.55999 2.39997H23.976C24.328 2.39997 24.616 2.51197 24.84 2.73597C25.064 2.95997 25.176 3.24797 25.176 3.59997V8.11197C25.176 8.46397 25.064 8.75197 24.84 8.97597C24.616 9.19997 24.328 9.31197 23.976 9.31197H8.66399V15.792H22.92C23.272 15.792 23.56 15.92 23.784 16.176C24.008 16.4 24.12 16.688 24.12 17.04V21.216C24.12 21.536 24.008 21.824 23.784 22.08C23.56 22.304 23.272 22.416 22.92 22.416H8.66399V29.088H24.36C24.712 29.088 25 29.2 25.224 29.424C25.448 29.648 25.56 29.936 25.56 30.288V34.8C25.56 35.152 25.448 35.44 25.224 35.664C25 35.888 24.712 36 24.36 36H1.55999Z" fill="#F5F5F5"/>
<path d="M31.6882 36C31.3362 36 31.0482 35.888 30.8242 35.664C30.6002 35.44 30.4882 35.152 30.4882 34.8V12.24C30.4882 11.888 30.6002 11.6 30.8242 11.376C31.0482 11.152 31.3362 11.04 31.6882 11.04H37.3522C37.6722 11.04 37.9442 11.152 38.1682 11.376C38.4242 11.6 38.5522 11.888 38.5522 12.24V34.8C38.5522 35.152 38.4242 35.44 38.1682 35.664C37.9442 35.888 37.6722 36 37.3522 36H31.6882ZM31.6402 7.43997C31.2882 7.43997 31.0002 7.32797 30.7762 7.10397C30.5522 6.87997 30.4402 6.59197 30.4402 6.23997V1.96797C30.4402 1.61597 30.5522 1.32797 30.7762 1.10397C31.0002 0.84797 31.2882 0.719971 31.6402 0.719971H37.3522C37.7042 0.719971 37.9922 0.84797 38.2162 1.10397C38.4722 1.32797 38.6002 1.61597 38.6002 1.96797V6.23997C38.6002 6.59197 38.4722 6.87997 38.2162 7.10397C37.9922 7.32797 37.7042 7.43997 37.3522 7.43997H31.6402Z" fill="#F5F5F5"/>
<path d="M56.9437 36C54.8957 36 53.1197 35.68 51.6157 35.04C50.1437 34.368 49.0077 33.344 48.2077 31.968C47.4077 30.56 47.0077 28.752 47.0077 26.544V17.328H43.2637C42.9117 17.328 42.6077 17.216 42.3517 16.992C42.1277 16.768 42.0157 16.48 42.0157 16.128V12.24C42.0157 11.888 42.1277 11.6 42.3517 11.376C42.6077 11.152 42.9117 11.04 43.2637 11.04H47.0077V3.11997C47.0077 2.76797 47.1197 2.47997 47.3437 2.25597C47.5997 2.03197 47.8877 1.91997 48.2077 1.91997H53.7757C54.1277 1.91997 54.4157 2.03197 54.6397 2.25597C54.8637 2.47997 54.9757 2.76797 54.9757 3.11997V11.04H60.9757C61.3277 11.04 61.6157 11.152 61.8397 11.376C62.0637 11.6 62.1757 11.888 62.1757 12.24V16.128C62.1757 16.48 62.0637 16.768 61.8397 16.992C61.6157 17.216 61.3277 17.328 60.9757 17.328H54.9757V25.872C54.9757 26.96 55.1837 27.824 55.5997 28.464C56.0157 29.104 56.7197 29.424 57.7117 29.424H61.4077C61.7597 29.424 62.0477 29.536 62.2717 29.76C62.4957 29.984 62.6077 30.272 62.6077 30.624V34.8C62.6077 35.152 62.4957 35.44 62.2717 35.664C62.0477 35.888 61.7597 36 61.4077 36H56.9437Z" fill="#F5F5F5"/>
<path d="M67.782 36C67.43 36 67.142 35.888 66.918 35.664C66.694 35.44 66.582 35.152 66.582 34.8V3.11997C66.582 2.76797 66.694 2.47997 66.918 2.25597C67.142 2.03197 67.43 1.91997 67.782 1.91997H73.926C74.278 1.91997 74.566 2.03197 74.79 2.25597C75.014 2.47997 75.126 2.76797 75.126 3.11997V13.824C75.99 12.832 77.046 12.048 78.294 11.472C79.574 10.864 81.046 10.56 82.71 10.56C84.566 10.56 86.214 10.976 87.654 11.808C89.126 12.64 90.278 13.872 91.11 15.504C91.942 17.104 92.358 19.072 92.358 21.408V34.8C92.358 35.152 92.246 35.44 92.022 35.664C91.798 35.888 91.51 36 91.158 36H84.966C84.646 36 84.358 35.888 84.102 35.664C83.878 35.44 83.766 35.152 83.766 34.8V21.696C83.766 20.192 83.398 19.04 82.662 18.24C81.958 17.408 80.902 16.992 79.494 16.992C78.182 16.992 77.126 17.408 76.326 18.24C75.526 19.04 75.126 20.192 75.126 21.696V34.8C75.126 35.152 75.014 35.44 74.79 35.664C74.566 35.888 74.278 36 73.926 36H67.782Z" fill="#F5F5F5"/>
<path d="M109.609 36.48C106.921 36.48 104.649 36.048 102.793 35.184C100.969 34.32 99.5607 33.088 98.5687 31.488C97.6087 29.856 97.0647 27.92 96.9367 25.68C96.9047 25.04 96.8887 24.32 96.8887 23.52C96.8887 22.688 96.9047 21.968 96.9367 21.36C97.0647 19.088 97.6407 17.152 98.6647 15.552C99.6887 13.952 101.113 12.72 102.937 11.856C104.793 10.992 107.017 10.56 109.609 10.56C112.233 10.56 114.457 10.992 116.281 11.856C118.137 12.72 119.577 13.952 120.601 15.552C121.625 17.152 122.201 19.088 122.329 21.36C122.361 21.968 122.377 22.688 122.377 23.52C122.377 24.32 122.361 25.04 122.329 25.68C122.201 27.92 121.641 29.856 120.649 31.488C119.689 33.088 118.281 34.32 116.425 35.184C114.601 36.048 112.329 36.48 109.609 36.48ZM109.609 30.624C111.049 30.624 112.089 30.192 112.729 29.328C113.401 28.464 113.785 27.168 113.881 25.44C113.913 24.96 113.929 24.32 113.929 23.52C113.929 22.72 113.913 22.08 113.881 21.6C113.785 19.904 113.401 18.624 112.729 17.76C112.089 16.864 111.049 16.416 109.609 16.416C108.201 16.416 107.161 16.864 106.489 17.76C105.817 18.624 105.449 19.904 105.385 21.6C105.353 22.08 105.337 22.72 105.337 23.52C105.337 24.32 105.353 24.96 105.385 25.44C105.449 27.168 105.817 28.464 106.489 29.328C107.161 30.192 108.201 30.624 109.609 30.624Z" fill="#F5F5F5"/>
<path d="M128.298 36C127.946 36 127.658 35.888 127.434 35.664C127.21 35.44 127.098 35.152 127.098 34.8V12.24C127.098 11.92 127.21 11.648 127.434 11.424C127.658 11.168 127.946 11.04 128.298 11.04H133.818C134.17 11.04 134.458 11.168 134.682 11.424C134.906 11.648 135.018 11.92 135.018 12.24V14.16C135.882 13.168 136.906 12.4 138.09 11.856C139.306 11.312 140.666 11.04 142.17 11.04H144.282C144.602 11.04 144.874 11.152 145.098 11.376C145.354 11.6 145.482 11.888 145.482 12.24V17.184C145.482 17.504 145.354 17.792 145.098 18.048C144.874 18.272 144.602 18.384 144.282 18.384H139.626C138.314 18.384 137.29 18.752 136.554 19.488C135.85 20.192 135.498 21.2 135.498 22.512V34.8C135.498 35.152 135.37 35.44 135.114 35.664C134.89 35.888 134.602 36 134.25 36H128.298Z" fill="#F5F5F5"/>
</svg>
